<?xml version="1.0" encoding="utf-8"?>
<!-- Generator: Adobe Illustrator 16.0.0, SVG Export Plug-In . SVG Version: 6.00 Build 0)  -->
<!DOCTYPE svg PUBLIC "-//W3C//DTD SVG 1.1//EN" "http://www.w3.org/Graphics/SVG/1.1/DTD/svg11.dtd">
<svg version="1.1" id="Livello_1" xmlns="http://www.w3.org/2000/svg" xmlns:xlink="http://www.w3.org/1999/xlink" x="0px" y="0px"
	 width="27px" height="27px" viewBox="1.65 1.9 27 27" enable-background="new 1.65 1.9 27 27" xml:space="preserve">
<g id="Livello_1_1_">
</g>
<path fill="#414042" d="M15.15,2.9c-6.9,0-12.5,5.6-12.5,12.5s5.6,12.5,12.5,12.5s12.5-5.6,12.5-12.5S22.05,2.9,15.15,2.9z
	 M8.55,7.201c0.1-0.101,0.4-0.101,0.5,0l0,0l0,0l4,4l0,0l0,0c0.1,0.1,0.1,0.399,0,0.5c-0.1,0.1-0.4,0.199-0.5,0l0,0l0,0l-4-4l0,0
	l0,0C8.451,7.6,8.451,7.3,8.55,7.201z M22.85,22.4c-2.5,2.5-7.899,1.2-11.899-2.8C6.85,15.5,5.55,10.201,8.15,7.701l0,0l4.5,4.5l0,0
	c-0.4,0.399-0.8,0.6-1.199,0.799C11.85,14.3,12.65,15.6,13.85,16.8c1.2,1.199,2.5,2,3.8,2.4c0.2-0.4,0.4-0.9,0.801-1.201l0,0
	L22.85,22.4L22.85,22.4z M23.35,21.9c-0.101,0.1-0.399,0.1-0.5,0l0,0l-4-4l0,0l0,0c-0.101-0.1-0.2-0.4,0-0.5
	c0.101-0.1,0.399-0.1,0.5,0l0,0l4,4l0,0l0,0C23.451,21.5,23.451,21.8,23.35,21.9z"/>
<path fill="#FFFFFF" d="M64.3,49.201L64.3,49.201l4,4l0,0l0,0c0.1,0.1,0.4,0.1,0.5,0c0.1-0.101,0.199-0.4,0-0.5l0,0l0,0l-4-4l0,0
	l0,0c-0.1-0.101-0.4-0.201-0.5,0C64.201,48.8,64.201,49.1,64.3,49.201L64.3,49.201z"/>
<path fill="#FFFFFF" d="M79.1,62.9L79.1,62.9l-4-4l0,0c-0.2-0.1-0.399-0.1-0.5,0c-0.2,0.1-0.101,0.4,0,0.5l0,0l0,0l4,4l0,0
	c0.2,0.1,0.399,0.1,0.5,0S79.201,63,79.1,62.9L79.1,62.9z"/>
</svg>
