<?xml version="1.0" encoding="utf-8"?>
<!-- Generator: Adobe Illustrator 16.0.0, SVG Export Plug-In . SVG Version: 6.00 Build 0)  -->
<!DOCTYPE svg PUBLIC "-//W3C//DTD SVG 1.1//EN" "http://www.w3.org/Graphics/SVG/1.1/DTD/svg11.dtd">
<svg version="1.1" id="Layer_1" xmlns="http://www.w3.org/2000/svg" xmlns:xlink="http://www.w3.org/1999/xlink" x="0px" y="0px"
	 width="38px" height="38px" viewBox="61 67.4 38 38" style="enable-background:new 61 67.4 38 38;" xml:space="preserve">
<style type="text/css">
<![CDATA[
	.st0{fill:#FFCC00;}
	.st1{fill:#FFFFFF;}
	.st2{fill:#3C3C3B;}
]]>
</style>
<g>
	<path class="st2" d="M80,105.4c-10.5,0-19-8.5-19-19s8.5-19,19-19c10.5,0,19,8.5,19,19C99,96.9,90.5,105.4,80,105.4"/>
	<path class="st1" d="M88.3,85.1v3v4.2c0,0,0,0.1,0,0.1c0,0-0.1,0.1-0.2,0.1c-0.1,0-0.2,0-0.3,0s-0.3,0-0.5,0c-0.2,0-0.3,0-0.5,0
		c-0.1,0-0.2,0-0.3,0c-0.1,0-0.1,0-0.2-0.1s0-0.1,0-0.1v-7.2h-1.7c0-0.2-0.1-0.3-0.1-0.4c-0.1-0.3-0.3-0.6-0.5-0.8
		c-0.1-0.1-0.2-0.2-0.3-0.3h3.1h3.6c0,0,0.1,0,0.1,0c0,0,0.1,0.1,0.1,0.1c0,0,0,0.1,0,0.3c0,0.1,0,0.2,0,0.3c0,0.1,0,0.3,0,0.3
		s0,0.2,0,0.3c0,0,0,0.1-0.1,0.1c0,0-0.1,0-0.1,0H88.3z"/>
	<path class="st0" d="M73.4,76.8c0-0.3,0-0.6-0.2-0.8c-0.1-0.2-0.3-0.3-0.4-0.5c-0.2-0.1-0.3-0.2-0.5-0.2c-0.2,0-0.4,0-0.5,0H71v3
		h0.8c0.3,0,0.5,0,0.7-0.1c0.2-0.1,0.4-0.2,0.5-0.3c0.1-0.1,0.2-0.3,0.3-0.5C73.4,77.2,73.4,77,73.4,76.8 M75.4,76.7
		c0,0.5-0.1,1-0.3,1.3s-0.4,0.7-0.7,1c-0.3,0.3-0.7,0.5-1.1,0.6c-0.4,0.1-1,0.2-1.5,0.2h-0.8v2.8c0,0,0,0.1,0,0.1
		c0,0-0.1,0.1-0.2,0.1c-0.1,0-0.2,0-0.3,0c-0.1,0-0.3,0-0.5,0c-0.2,0-0.3,0-0.5,0c-0.1,0-0.2,0-0.3,0c-0.1,0-0.1,0-0.1-0.1
		c0,0,0,0,0-0.1v-8.1c0-0.2,0-0.4,0.2-0.5s0.3-0.2,0.5-0.2H72c0.2,0,0.4,0,0.6,0c0.2,0,0.4,0,0.7,0.1c0.3,0,0.5,0.2,0.8,0.3
		c0.3,0.1,0.5,0.3,0.7,0.5c0.2,0.2,0.3,0.5,0.5,0.8C75.3,76,75.4,76.3,75.4,76.7z"/>
	<path class="st1" d="M77.4,91.8c0,0.2,0.1,0.3,0.1,0.4s0,0.2,0,0.2c0,0-0.1,0.1-0.3,0.1c-0.1,0-0.3,0-0.5,0c-0.3,0-0.4,0-0.5,0
		c-0.1,0-0.3,0-0.3,0c-0.1,0-0.1,0-0.2-0.1c0,0,0-0.1-0.1-0.2l-0.4-1.1l-1.9-5.9l0,0l-0.2,0.5l0,0l-1.8,5.7L71,92.2
		c0,0.1,0,0.1-0.1,0.2c0,0-0.1,0.1-0.1,0.1c-0.1,0-0.2,0-0.3,0c-0.1,0-0.3,0-0.5,0c-0.2,0-0.4,0-0.5,0c-0.1,0-0.2,0-0.3-0.1
		c0,0-0.1-0.1,0-0.2c0-0.1,0-0.2,0.1-0.4l2.8-7.9c0-0.1,0-0.1,0.1-0.2c0,0,0.1-0.1,0.2-0.1c0.1,0,0.2,0,0.3,0c0.1,0,0.3,0,0.6,0
		c0.3,0,0.5,0,0.7,0s0.3,0,0.4,0c0.1,0,0.2,0.1,0.2,0.1c0,0,0.1,0.1,0.1,0.2L77.4,91.8z"/>
	<path class="st1" d="M84.5,92.3c0,0,0,0.1,0,0.1c0,0,0,0-0.1,0.1c-0.1,0-0.2,0-0.3,0s-0.3,0-0.5,0s-0.3,0-0.5,0c-0.1,0-0.2,0-0.3,0
		c-0.1,0-0.1,0-0.1-0.1c0,0,0-0.1-0.1-0.1l-0.8-2c-0.1-0.2-0.2-0.4-0.3-0.6c-0.1-0.2-0.2-0.3-0.3-0.5C81,89.1,80.9,89,80.8,89
		c-0.2,0-0.3-0.1-0.5-0.1h-0.6v3.4c0,0,0,0.1,0,0.1c0,0-0.1,0.1-0.2,0.1c-0.1,0-0.2,0-0.3,0c-0.1,0-0.3,0-0.5,0c-0.2,0-0.3,0-0.5,0
		c-0.1,0-0.2,0-0.3,0c-0.1,0-0.1,0-0.1-0.1c0,0,0-0.1,0-0.1v-4.8h2.8c0.3,0,0.5,0,0.7-0.1c0.2,0,0.4-0.2,0.5-0.3
		c0.1-0.1,0.2-0.3,0.3-0.4s0.1-0.3,0.1-0.5c0-0.3-0.1-0.5-0.2-0.8c-0.1-0.2-0.3-0.3-0.7-0.4c-0.1,0-0.2,0-0.3,0c-0.1,0-0.3,0-0.5,0
		h-0.5h-0.3H76l-0.5-1.4h5.1c0.3,0,0.4,0,0.6,0c0.2,0,0.3,0,0.4,0c0.4,0,0.7,0.1,1,0.3c0.3,0.1,0.5,0.3,0.8,0.5
		c0.2,0.2,0.3,0.5,0.5,0.7c0.1,0.3,0.2,0.6,0.2,1c0,0.3,0,0.6-0.1,0.8c-0.1,0.3-0.2,0.5-0.3,0.7c-0.2,0.2-0.3,0.4-0.5,0.5
		c-0.2,0.1-0.5,0.3-0.8,0.3c0.1,0.1,0.3,0.1,0.4,0.3c0.1,0.1,0.2,0.2,0.3,0.3c0.1,0.1,0.2,0.3,0.3,0.5s0.2,0.4,0.3,0.6l0.8,1.8
		c0.1,0.2,0.1,0.3,0.1,0.4C84.5,92.2,84.5,92.2,84.5,92.3"/>
	<path class="st0" d="M70,97.7c0,0.2,0,0.3-0.1,0.4c0,0.1-0.1,0.2-0.3,0.3c-0.1,0.1-0.2,0.1-0.4,0.2c-0.1,0-0.3,0-0.5,0
		c-0.1,0-0.2,0-0.3,0c-0.1,0-0.2,0-0.3,0c-0.1,0-0.1,0-0.2-0.1c0,0-0.1,0-0.1-0.1c0,0,0,0,0-0.1c0,0,0-0.1,0-0.2c0,0,0-0.1,0-0.1
		c0,0,0,0,0-0.1c0,0,0,0,0,0h0c0,0,0,0,0.1,0c0,0,0.1,0,0.2,0.1c0,0,0.1,0,0.2,0.1c0.1,0,0.2,0,0.3,0s0.1,0,0.2,0c0,0,0.1,0,0.2-0.1
		c0,0,0.1-0.1,0.1-0.1c0,0,0-0.1,0-0.2s0-0.1,0-0.2c0,0-0.1-0.1-0.2-0.1c0,0-0.1-0.1-0.2-0.1c-0.1,0-0.2-0.1-0.3-0.1
		c-0.1,0-0.2-0.1-0.3-0.1s-0.1-0.1-0.2-0.2c0-0.1-0.1-0.1-0.2-0.3c0-0.1,0-0.2,0-0.3c0-0.1,0-0.3,0.1-0.4c0-0.1,0.1-0.2,0.2-0.3
		s0.2-0.1,0.3-0.2c0.1,0,0.3,0,0.4,0c0.1,0,0.1,0,0.2,0s0.1,0,0.2,0s0.1,0,0.2,0.1c0,0,0.1,0,0.1,0l0,0v0c0,0,0,0,0,0.1
		c0,0,0,0,0,0.1s0,0.1,0,0.1s0,0,0,0.1c0,0,0,0,0,0h0c0,0,0,0-0.1,0c0,0-0.1,0-0.1-0.1s-0.1,0-0.2-0.1c-0.1,0-0.2,0-0.3,0
		s-0.1,0-0.2,0c0,0-0.1,0-0.1,0.1c0,0,0,0.1-0.1,0.1c0,0,0,0.1,0,0.1c0,0.1,0,0.1,0,0.2c0,0,0.1,0.1,0.2,0.1c0,0,0.1,0.1,0.2,0.1
		c0.1,0,0.2,0.1,0.3,0.1c0.1,0,0.2,0.1,0.3,0.1c0.1,0,0.2,0.1,0.2,0.2c0,0.1,0.1,0.1,0.2,0.3C70,97.5,70,97.6,70,97.7"/>
	<path class="st0" d="M74.3,95.9c0,0,0,0.1,0,0.1s0,0,0,0.1c0,0,0,0,0,0h0h-0.8v2.5v0l0,0c0,0,0,0-0.1,0c0,0-0.1,0-0.2,0
		c0,0-0.1,0-0.2,0c0,0-0.1,0-0.1,0c0,0,0,0,0,0v0v-2.5h-0.8h0c0,0,0,0,0,0c0,0,0,0,0-0.1s0-0.1,0-0.1s0-0.1,0-0.1c0,0,0,0,0-0.1
		c0,0,0,0,0,0h0h2.1h0c0,0,0,0,0,0c0,0,0,0,0,0.1C74.3,95.8,74.3,95.8,74.3,95.9"/>
	<path class="st0" d="M79,97.5c0,0.2,0,0.3-0.1,0.5c0,0.2-0.1,0.3-0.3,0.4c-0.1,0.1-0.3,0.2-0.4,0.3c-0.2,0-0.3,0.1-0.5,0.1
		c-0.2,0-0.4,0-0.5-0.1c-0.2,0-0.3-0.1-0.4-0.2c-0.1-0.1-0.2-0.2-0.3-0.4c0-0.1-0.1-0.3-0.1-0.5v-1.8v0l0,0c0,0,0,0,0.1,0
		s0.1,0,0.2,0c0,0,0.1,0,0.2,0c0,0,0.1,0,0.1,0c0,0,0,0,0,0v0v1.8c0,0.1,0,0.2,0,0.3c0,0.1,0.1,0.2,0.1,0.2c0,0,0.1,0.1,0.2,0.1
		c0.1,0,0.2,0,0.3,0c0.1,0,0.2,0,0.3,0c0.1,0,0.1-0.1,0.2-0.1c0,0,0.1-0.1,0.1-0.2c0-0.1,0-0.2,0-0.3v-1.8v0l0,0c0,0,0,0,0.1,0
		s0.1,0,0.2,0c0,0,0.1,0,0.2,0s0.1,0,0.1,0c0,0,0,0,0,0v0L79,97.5L79,97.5z"/>
	<path class="st0" d="M83.3,97.1c0-0.1,0-0.3,0-0.4c0-0.1-0.1-0.3-0.2-0.3c-0.1-0.1-0.2-0.2-0.3-0.2c-0.1,0-0.3-0.1-0.5-0.1h-0.3
		v2.1h0.3c0.2,0,0.3,0,0.4-0.1s0.2-0.1,0.3-0.2c0.1-0.1,0.1-0.2,0.2-0.3C83.3,97.5,83.3,97.3,83.3,97.1 M84,97.1
		c0,0.3,0,0.5-0.1,0.7c-0.1,0.2-0.2,0.4-0.3,0.5c-0.1,0.1-0.3,0.2-0.5,0.3c-0.2,0-0.4,0.1-0.7,0.1h-0.7c0,0-0.1,0-0.1,0s0-0.1,0-0.2
		v-2.7c0-0.1,0-0.1,0-0.2s0.1,0,0.1,0h0.8c0.3,0,0.5,0,0.7,0.1c0.2,0,0.3,0.2,0.5,0.3c0.1,0.1,0.2,0.3,0.3,0.5
		C84,96.7,84,96.9,84,97.1z"/>
	<path class="st0" d="M86.9,98.6L86.9,98.6L86.9,98.6c-0.1,0.1-0.1,0.1-0.1,0.1c0,0-0.1,0-0.2,0c0,0-0.1,0-0.2,0c0,0-0.1,0-0.1,0
		c0,0,0,0,0,0v0v-2.9v0l0,0c0,0,0,0,0.1,0c0,0,0.1,0,0.2,0c0,0,0.1,0,0.2,0c0,0,0.1,0,0.1,0c0,0,0,0,0,0v0V98.6z"/>
	<path class="st0" d="M91.5,97.2c0-0.2,0-0.3,0-0.4c0-0.1-0.1-0.3-0.1-0.3c0-0.1-0.1-0.2-0.3-0.2c-0.1,0-0.2-0.1-0.4-0.1
		s-0.3,0-0.4,0.1s-0.2,0.1-0.3,0.3C90,96.5,90,96.7,90,96.8c0,0.1,0,0.3,0,0.4c0,0.2,0,0.3,0,0.5c0,0.1,0.1,0.3,0.1,0.3
		c0,0.1,0.1,0.2,0.3,0.2c0.1,0,0.2,0.1,0.4,0.1s0.3,0,0.4-0.1c0.1,0,0.2-0.1,0.3-0.3c0.1-0.1,0.1-0.2,0.1-0.3
		C91.5,97.5,91.5,97.3,91.5,97.2 M92.2,97.1c0,0.3,0,0.5-0.1,0.7c-0.1,0.2-0.2,0.4-0.3,0.5s-0.3,0.3-0.5,0.3
		c-0.2,0.1-0.4,0.1-0.6,0.1s-0.5,0-0.6-0.1s-0.3-0.2-0.5-0.3c-0.1-0.1-0.2-0.3-0.3-0.5c0-0.2-0.1-0.4-0.1-0.7c0-0.3,0-0.5,0.1-0.7
		c0.1-0.2,0.2-0.4,0.3-0.5c0.1-0.1,0.3-0.3,0.5-0.3c0.2-0.1,0.4-0.1,0.6-0.1s0.4,0,0.6,0.1c0.2,0,0.3,0.2,0.5,0.3s0.2,0.3,0.3,0.5
		C92.2,96.6,92.2,96.9,92.2,97.1z"/>
	<path class="st1" d="M80,94c7.5,0,13.6,0,13.6,0.1s-6.1,0.1-13.6,0.1c-7.5,0-13.6,0-13.6-0.1S72.5,94,80,94"/>
	<path class="st0" d="M90.8,76.7c0,0.5-0.1,1-0.3,1.3s-0.4,0.7-0.7,1c-0.3,0.3-0.7,0.5-1.1,0.6c-0.4,0.1-1,0.2-1.5,0.2h-0.8v2.8
		c0,0,0,0.1,0,0.1c0,0-0.1,0.1-0.2,0.1c-0.1,0-0.2,0-0.3,0s-0.3,0-0.5,0c-0.2,0-0.3,0-0.5,0c-0.1,0-0.2,0-0.3,0
		c-0.1,0-0.1,0-0.1-0.1c0,0,0,0,0-0.1c0-1.2,0-2.3,0-3.5c0-0.5,0.2-0.8,0.8-0.8h1.9c0.3,0,0.5,0,0.7-0.1c0.2-0.1,0.4-0.2,0.5-0.3
		c0.1-0.1,0.2-0.3,0.3-0.5c0.1-0.2,0.1-0.4,0.1-0.6c0-0.3,0-0.6-0.2-0.8c-0.4-0.7-1.4-0.6-2.2-0.6c-2.2,0-4.4,0-6.6,0
		c0,0-0.1,0-0.2,0s-0.1,0-0.2,0l0,0c-0.4,0-0.7,0.1-1,0.3c-0.3,0.2-0.5,0.4-0.7,0.7s-0.3,0.6-0.4,1c-0.1,0.4-0.1,0.8-0.1,1.2
		c0,0.5,0,0.9,0.1,1.3c0.1,0.4,0.2,0.7,0.4,1s0.4,0.5,0.7,0.6s0.7,0.2,1.1,0.2c0.5,0,0.8-0.1,1.1-0.3c0.3-0.2,0.5-0.4,0.7-0.7
		c0.2-0.3,0.3-0.6,0.4-1c0.1-0.4,0.1-0.8,0.1-1.2c0-0.5,0-0.9-0.1-1.3c-0.1-0.4-0.2-0.7-0.4-1h2.1c0,0,0,0.1,0,0.1
		c0.2,0.5,0.3,1.2,0.3,2c0,0.7-0.1,1.4-0.3,2c-0.2,0.6-0.5,1.1-0.8,1.5c-0.4,0.4-0.8,0.7-1.3,0.9c-0.5,0.2-1.2,0.3-1.9,0.3
		c-0.7,0-1.3-0.1-1.8-0.3c-0.5-0.2-1-0.5-1.3-0.8c-0.3-0.4-0.6-0.8-0.8-1.4c-0.2-0.6-0.3-1.3-0.3-2c0-0.7,0.1-1.3,0.3-1.9
		c0.2-0.6,0.5-1,0.8-1.5c0.4-0.4,0.8-0.7,1.3-0.9c0.5-0.2,1.2-0.3,1.9-0.3c0.1,0,0.2,0,0.3,0h7.3c0.2,0,0.4,0,0.6,0
		c0.2,0,0.4,0,0.7,0.1c0.3,0,0.5,0.2,0.8,0.3c0.3,0.1,0.5,0.3,0.7,0.5c0.2,0.2,0.3,0.5,0.5,0.8C90.8,76,90.8,76.3,90.8,76.7"/>
</g>
</svg>
